<?xml version="1.0" encoding="UTF-8"?>
<svg id="Layer_2" xmlns="http://www.w3.org/2000/svg" viewBox="0 0 907.2 1078.57">
  <defs>
    <style>
      .cls-1 {
        fill: #fff;
        fill-rule: evenodd;
      }
    </style>
  </defs>
  <g id="Layer_1-2" data-name="Layer_1" focusable="false">
    <path class="cls-1" d="M546.54,384.72c33.04-16.47,75.07-40.72,117.16-73.95,8.87,18.43,9.85,34.51,5.27,47.49-3.24,9.15-9.35,17.11-17.37,23.44-8.69,6.84-19.55,11.83-31.55,14.52-22.77,5.13-49.36,2.13-73.51-11.51M552.27,553.51l43.73,25.26c-89.29,50.05-113.57,142.98-142.41,233.49-28.83-90.51-53.11-183.45-142.4-233.49l43.73-25.26c8.68-3.28,14.26-11.77,13.82-21.04-4.01-84.77,18.88-122.26,49.76-145.79,11.07-8.43,23.16-12.66,35.09-12.66s24.02,4.23,35.09,12.66c30.87,23.54,53.76,61.02,49.76,145.79-.44,9.27,5.15,17.76,13.82,21.04h0ZM453.6,0c50.55,1.36,101.23,11.17,145.21,30.26,30.46,13.24,58.87,30.72,84.61,51.63,11.62,9.44,21.19,18.56,31.73,29.06,28.43.98,69.98-30.6,89.27-60.15-33.2,108.83-184.68,237.34-289.55,286.52-.04-.02-.07-.04-.1-.06-18.82-14.37-39.99-21.56-61.16-21.56s-42.34,7.19-61.16,21.56c-.03.02-.06.05-.1.06C287.46,288.14,135.99,159.62,102.79,50.8c19.29,29.55,60.83,61.14,89.26,60.15,10.54-10.49,20.11-19.62,31.73-29.06,25.73-20.91,54.15-38.39,84.61-51.63C352.38,11.17,403.05,1.36,453.6,0M360.66,384.72c-33.03-16.47-75.07-40.72-117.16-73.95-8.87,18.43-9.85,34.51-5.28,47.49,3.24,9.15,9.35,17.11,17.37,23.44,8.7,6.84,19.56,11.83,31.56,14.52,22.77,5.13,49.36,2.13,73.5-11.51"/>
    <path class="cls-1" d="M709.8,270.06c23.17-23.38,43.59-49.26,60-72.36l8.34,15.69c26.84,53.7,40.79,107.19,40.79,167.38l-.06,95.52.5,49.51c1.94,121.56,28.25,244.54,87.83,357.09l-124.66-100.52-88.2,143.13-92.66-87.23-148.08,240.3-148.08-240.29-92.66,87.23-88.2-143.13L0,882.9c59.58-112.55,85.88-235.54,87.83-357.09l.5-49.51-.06-95.52c0-60.2,13.94-113.68,40.79-167.38l8.33-15.69c16.42,23.09,36.83,48.97,60,72.36l-7.24,15.03c-14.06,29.19-18.71,61.83-7.76,92.88,7.06,19.99,19.94,37.14,36.55,50.23,16.13,12.71,35.22,21.28,55.2,25.78,13.02,2.93,26.28,4.14,39.46,3.73-3.07,17.43-4.42,35.5-4.5,53.92l-117.59,67.92,90.74,50.86c7.25,4.07,14.16,8.72,20.64,13.93,74.81,67.17,119.79,265.88,150.7,362.94,30.91-97.06,75.89-295.77,150.7-362.94,6.48-5.2,13.39-9.86,20.64-13.93l90.74-50.86-117.59-67.92c-.09-18.42-1.43-36.49-4.5-53.92,13.18.41,26.44-.8,39.46-3.73,19.98-4.5,39.07-13.07,55.2-25.78,16.61-13.09,29.49-30.24,36.55-50.23,10.95-31.04,6.3-63.68-7.76-92.88l-7.24-15.03h0Z"/>
  </g>
</svg>