<?xml version="1.0" encoding="UTF-8"?>
<svg id="Layer_2" xmlns="http://www.w3.org/2000/svg" viewBox="0 0 1956.19 1971.51">
  <defs>
    <style>
      .cls-1 {
        fill: #fff;
      }

      .cls-2 {
        fill: #16403e;
      }

      .cls-3 {
        fill: #238a64;
      }

      .cls-4 {
        fill: #54d592;
      }
    </style>
  </defs>
  <g id="Layer_7">
    <path class="cls-1" d="M959.46.17C417.74,10.38-15.53,477.91.43,1015.14c15.41,518.98,445.68,956.36,977.68,956.36,534.12,0,962.65-440.87,977.68-956.36C1971.73,467.83,1517.09-10.34,959.46.17Z"/>
  </g>
  <g id="Layer_5">
    <path class="cls-4" d="M1238.3,1246.77c21.18,162.37-273.13,428.19-563.02,382.57-163.08-25.66-344.87-153.06-368-325.33-18.37-136.82,70.84-246.02,173.69-371.91,75.8-92.78,144.07-176.35,231.11-172.44,77.23,3.46,104.02,72.87,236.44,209.78,197.46,204.15,279.16,195.89,289.78,277.33Z"/>
    <path class="cls-1" d="M1680.96,784.54c-27.91,119.95-99.4,197.6-197.33,304-67.25,73.06-131.44,125.58-177.78,160-197.33-183.7-394.67-367.41-592-551.11,37.62-62.11,99.86-151.88,195.56-241.78,118.85-111.65,211.14-198.35,352-206.22,126.59-7.08,262.89,51.15,348.44,161.78,121.44,157.04,78.9,339.88,71.11,373.33Z"/>
  </g>
  <g id="Layer_2-2" data-name="Layer_2">
    <g id="Layer_1-2">
      <path class="cls-2" d="M1258.01,221.58c-3.63.37-12.81,1.18-20.36,1.85s-14.88,1.48-16.29,1.85-5.4,1.04-8.88,1.48c-6.22.89-18.8,3.63-38.86,8.51-9.92,2.44-29.98,8.88-37.75,12.14-2,.81-6.88,2.74-10.73,4.22s-8.88,3.63-11.18,4.74-5.4,2.44-7.03,2.96c-7.77,2.52-41.23,21.17-55.3,30.87-3.11,2.15-5.85,3.92-6.07,3.92-1.85,0-33.16,24.43-46.93,36.57-21.39,18.95-74.91,71.51-106.75,104.82-8.74,9.11-18.58,19.47-21.84,22.95-3.33,3.48-7.48,7.92-9.25,9.92s-5.03,5.48-7.18,7.77c-2.22,2.29-6.37,6.66-9.25,9.7s-8.44,8.88-12.36,12.95c-3.85,4.07-10.66,11.4-15.18,16.29-4.44,4.89-10.51,11.4-13.32,14.44-2.89,3.04-7.11,7.55-9.33,9.99-2.29,2.44-8.59,9.25-14.06,15.18-9.03,9.85-15.84,17.25-27.32,29.91-2.22,2.44-6.22,6.81-8.88,9.7-6.66,7.18-18.95,20.65-22.95,25.17-1.85,2-3.48,3.85-3.7,4.07s-3.04,3.33-6.29,7.03c-3.18,3.63-8.22,9.18-11.18,12.21-2.89,3.04-6.37,6.88-7.77,8.51-4.37,5.18-22.21,24.95-28.72,31.83-8.07,8.44-11.77,12.51-18.58,20.36-3.04,3.48-6,6.81-6.66,7.4s-7.33,7.77-14.81,15.92c-7.55,8.14-14.14,15.32-14.81,15.92-.59.59-2.74,2.96-4.74,5.18s-7.18,7.92-11.47,12.51c-4.29,4.66-9.99,10.88-12.66,13.69-2.66,2.89-9.85,10.88-15.92,17.84-6.07,6.88-14.88,16.58-19.62,21.47-21.47,22.36-30.79,32.28-39.9,42.57-7.77,8.81-13.99,15.4-26.28,28.13-12.44,12.88-17.1,17.91-25.24,27.02-3.63,4.07-7.62,8.44-8.81,9.62-1.26,1.26-5.11,5.4-8.59,9.25-9.55,10.59-19.25,21.25-26.72,29.24-2.74,2.81-7.7,8.44-11.03,12.36-3.33,4-6.37,7.25-6.66,7.25s-3.85,3.7-7.85,8.22-7.7,8.66-8.07,9.11c-13.55,14.66-29.98,36.27-39.53,51.89-3.04,4.89-6.22,10.07-7.11,11.47-4.22,6.66-20.36,37.38-20.36,38.79,0,.15-1.85,4.22-4.07,8.96-2.22,4.81-4.07,8.88-4.07,9.18,0,.52-4.37,11.18-6.29,15.25-.52,1.18-3.55,9.85-6.66,19.25-5.4,16.29-9.03,29.61-13.25,48.86-1.11,4.89-2.59,11.7-3.41,15.18s-2,10.96-2.59,16.66c-.67,5.7-1.63,13.69-2.22,17.77-1.04,7.18-1.78,15.18-3.41,38.86-1.33,18.58.22,44.93,4.52,76.62,5.03,37.46,14.36,72.99,27.39,104.75,2.07,5.11,4.44,10.96,5.26,13.1,2.37,6.22,20.8,42.71,26.95,53.52,3.11,5.4,7.85,13.25,10.51,17.32,2.74,4.15,6.07,9.33,7.55,11.55,1.41,2.22,2.96,4.44,3.41,4.96.37.44,1.92,2.59,3.33,4.66,1.41,2.15,4.59,6.37,6.96,9.48,5.55,7.18,12.51,15.92,13.03,16.43.22.22,3.04,3.55,6.29,7.4,14.29,17.1,48.34,49.38,68.7,65.14,4.07,3.18,6.07,4.59,15.92,11.55,4.89,3.48,20.58,13.4,27.17,17.17,2.44,1.41,5.63,3.26,7.03,4.07,3.85,2.22,27.83,14.14,32.94,16.43,16.43,7.25,52.56,19.62,69.21,23.69,12.44,3.04,31.83,7.11,35.53,7.48,2.22.22,8.59,1.04,14.06,1.85s16.14,1.78,23.69,2.15,15.69.89,18.14,1.11c11.03.89,23.91,1.11,35.16.44,25.39-1.55,45.16-3.11,46.78-3.7.96-.37,4.89-1.04,8.74-1.55,21.02-2.67,44.93-8.44,66.62-15.92,5.11-1.78,10.96-3.7,12.95-4.37,5.4-1.7,12.36-4.07,14.06-4.89.81-.37,4.81-2,8.88-3.55,4.07-1.63,10.59-4.44,14.44-6.29,3.85-1.78,8.51-4,10.36-4.81,1.85-.89,4.66-2.37,6.29-3.33s4.96-2.89,7.4-4.22c10.36-5.63,11.47-6.29,11.47-6.88,0-.3.44-.52.96-.52s3.26-1.55,6.07-3.41c2.89-1.85,7.7-4.89,10.73-6.74,8.07-4.89,25.02-17.4,30.35-22.43.67-.59,3.18-2.81,5.55-4.81,15.99-13.47,59.96-56.11,82.17-79.58,3.26-3.48,11.25-11.92,17.77-18.88,6.51-6.88,15.03-15.84,18.95-19.99,10.66-11.1,19.91-20.88,24.87-26.28,2.44-2.66,8.66-9.48,13.92-15.18,5.26-5.7,15.25-16.36,22.21-23.69,6.96-7.33,15.03-15.84,17.84-18.88,5.55-6,13.92-14.95,22.13-23.69,5.11-5.55,15.47-16.95,18.28-20.14.81-.96,3.33-3.7,5.63-6.14,2.29-2.44,6-6.44,8.22-8.88s5.92-6.44,8.14-8.88c2.29-2.44,6-6.44,8.22-8.88,2.22-2.44,7.25-7.99,11.18-12.21,3.92-4.29,9.4-10.44,12.21-13.69,2.81-3.26,5.77-6.59,6.59-7.48,1.55-1.63,9.7-10.59,22.58-24.72,4.29-4.66,10.29-11.18,13.32-14.44,3.11-3.26,8.07-8.74,11.1-12.21,3.04-3.48,7.77-8.59,10.44-11.47,2.74-2.81,8.74-9.55,13.32-14.81,4.59-5.33,8.59-9.77,8.81-9.99s2.89-3.18,5.92-6.66c8.07-9.11,14.95-16.58,31.46-34.05,8.59-9.18,17.47-18.8,28.87-31.39,3.7-4.07,7.33-8.07,8.14-8.96.81-.81,4.37-4.66,7.85-8.51,21.32-23.54,32.65-35.9,37.61-41.08,3.11-3.26,7.11-7.62,8.88-9.62,1.78-2.07,5.77-6.37,8.88-9.7,3.11-3.26,6.96-7.4,8.51-9.25,1.63-1.78,4.96-5.4,7.4-8.07,2.52-2.66,8.22-8.81,12.66-13.69,17.25-18.8,27.54-29.83,35.9-38.57,3.78-4,9.85-10.36,13.32-13.99,3.48-3.7,11.33-12.29,17.4-19.25,6.14-6.88,12.95-14.58,15.18-17.03,2.29-2.44,6.59-7.25,9.62-10.73,3.04-3.41,6.22-6.96,7.03-7.85,10.07-10.59,32.05-39.53,40.27-52.85,10.66-17.32,27.02-50.19,34.5-69.21,1.11-2.89,2.44-6.22,2.96-7.4,1.48-3.33,8.22-23.69,10.07-30.42,4.07-15.1,10.59-45.82,11.4-54.34.3-2.66,1.18-9.18,1.92-14.44,3.55-23.39,4.52-97.86,1.78-129.47-.96-10.66-6.44-40.57-10.44-57.07-3.48-14.21-8.66-31.91-12.14-41.45-.74-2.07-2.44-6.74-3.7-10.36-5.26-15.03-22.87-51.97-32.28-67.59-5.85-9.7-15.92-25.39-17.32-27.02-.44-.44-3.04-4.07-5.77-7.99-2.74-3.92-6.96-9.55-9.4-12.58-2.37-3.04-5.55-6.96-6.96-8.81-4.89-6.22-19.1-21.84-30.5-33.39-9.48-9.55-14.88-14.73-27.61-26.21-.81-.81-17.1-13.69-22.28-17.77-9.18-7.11-29.24-20.14-51.08-33.09-5.85-3.48-25.24-13.1-31.83-15.77-2.81-1.18-5.48-2.37-5.92-2.66-1.26-.89-16.88-7.18-26.43-10.59-11.62-4.22-23.76-7.77-39.09-11.47-24.95-6-30.42-6.81-61.81-9.03-13.77-1.04-70.18-1.48-79.21-.67h0ZM1319.08,288.57c13.47,1.33,31.02,3.78,37.38,5.11,2.89.59,7.7,1.55,10.73,2.15s7.7,1.63,10.36,2.29c2.66.74,6.29,1.55,8.14,1.92,7.18,1.41,23.98,6.44,28.65,8.59,1.26.59,2.66,1.04,3.11,1.04s2.22.67,3.92,1.41c24.13,10.88,31.76,14.51,41.68,19.99,2.07,1.18,7.4,4,11.84,6.37,9.33,4.89,29.31,17.84,37.53,24.35,1.04.89,2.59,2.07,3.41,2.66,19.99,15.32,51.82,46.78,61.89,61.29,1.55,2.29,4.52,6.07,6.44,8.51,2,2.37,5.48,7.18,7.77,10.73,2.29,3.55,5.4,8.22,6.81,10.44,7.03,10.59,14.58,23.47,18.14,30.79,5.4,11.03,9.4,19.54,9.4,19.99,0,.37,3.26,7.77,6.66,14.81,3.04,6.51,7.48,17.84,9.03,23.32.81,2.66,2.37,8.44,3.63,12.88,1.18,4.44,2.44,8.44,2.66,8.88.3.37.74,2.07,1.04,3.78.52,2.37,2.74,12.14,5.4,23.32.59,2.44,1.92,12.66,2.74,21.1.44,4.89,1.11,9.18,1.41,9.62,1.18,1.63,2.59,28.72,2.59,50.71-.07,22.73-.89,38.27-2.96,55.52-.52,4.66-1.41,12.14-1.85,16.66-.52,4.44-1.33,9.99-1.92,12.21-1.85,7.55-4.07,17.4-5.03,22.21-.52,2.66-1.63,6.88-2.52,9.48-.89,2.52-1.63,5.11-1.63,5.77,0,.59-.37,1.85-.89,2.74-.44.89-.96,2.15-1.04,2.74-.22,1.41-3.11,10.22-4,12.21-.37.81-1.18,3.33-1.85,5.55s-1.48,4.59-1.78,5.18-1.85,4.07-3.41,7.77c-1.55,3.63-4.59,10.44-6.74,15.1-2.22,4.59-4,8.51-4,8.74,0,.15-1.41,2.66-3.04,5.63-1.7,2.96-4,6.96-5.03,9.03-4.22,7.77-10.59,18.14-14.29,23.1-1.55,2.15-2.81,4.15-2.81,4.44,0,.37-.59,1.18-1.26,1.85-.74.59-2.15,2.29-3.18,3.63-1.04,1.41-3.92,4.89-6.44,7.85-2.59,2.96-4.66,5.48-4.66,5.63s-1.92,2.22-4.22,4.66c-2.37,2.37-5.4,5.7-6.81,7.33-3.48,4.15-19.39,21.02-30.42,32.2-12.29,12.51-38.35,39.6-45.23,47.01-3.04,3.26-9.33,9.92-13.99,14.81-17.54,18.28-33.98,35.75-41.08,43.6-.44.44-7.4,7.99-15.55,16.73-8.14,8.74-17.77,19.25-21.32,23.32-3.48,4.07-6.74,7.7-7.11,8.14-.44.37-2.81,3.04-5.4,5.85-2.59,2.89-7.33,7.99-10.66,11.47-3.33,3.55-9.48,10.22-13.62,14.88-4.22,4.66-10.22,11.25-13.25,14.58-3.11,3.33-6.81,7.4-8.22,8.96-3.55,3.92-19.17,20.65-25.54,27.24-11.1,11.47-12.95,13.55-12.95,14.29,0,.44-.3.81-.67.81s-3.18,2.52-6.29,5.55l-5.55,5.48-2.59-3.11c-6.07-7.33-63.22-62.33-74.47-71.66-2.66-2.15-6.59-5.7-8.74-7.77-2.15-2.07-10.29-9.92-18.14-17.4-16.51-15.84-15.69-15.1-57.59-56.56-42.57-42.19-58.7-57.89-67.66-65.88-8.74-7.77-64.25-61.52-81.8-79.21-18.51-18.65-37.53-36.72-51.08-48.64-6.74-5.85-16.06-14.51-20.8-19.17-4.74-4.66-13.4-12.95-19.25-18.43-5.85-5.48-16.8-16.06-24.43-23.47-7.55-7.48-19.54-19.1-26.65-25.91-13.4-12.95-41.97-40.86-66.25-64.99-13.99-13.84-24.72-25.54-24.72-26.87,0-.37,1.55-2.29,3.55-4.29,1.92-2,6.07-6.44,9.25-9.92,3.26-3.48,8.07-8.66,10.81-11.47,2.66-2.89,6.59-7.18,8.59-9.62s4.07-4.66,4.52-4.96c.52-.37,4-4,7.77-8.14,3.78-4.22,9.18-10.14,12.07-13.25,15.77-16.8,24.35-25.98,28.57-30.65,2.59-2.89,9.25-9.99,14.81-15.92,31.68-33.76,39.68-42.34,48.49-52.19,7.55-8.51,17.47-18.95,33.02-34.79,6.74-6.96,14.14-14.58,16.29-17.03,13.62-15.1,18.43-20.36,24.28-26.43,3.41-3.63,6.74-7.25,7.4-8.14.59-.89,2.59-3.11,4.52-4.96,1.85-1.85,7.4-7.77,12.36-13.03,25.09-27.02,49.01-49.75,67.59-64.33,3.04-2.44,6.22-5.03,7.03-5.77s2.96-2.37,4.81-3.63c1.85-1.18,4.89-3.26,6.74-4.59,12.14-8.36,32.13-19.69,48.41-27.32,24.58-11.55,44.27-18.8,68.84-25.32,14.73-3.92,20.51-5.03,38.49-7.48,7.33-1.04,14.36-2.07,15.55-2.29,10.44-2.29,49.52-3.18,66.25-1.41h0ZM696,765.74c.89.52,2.22,1.41,2.89,2.07s4.29,3.85,7.99,7.11c8.07,7.03,12.73,11.47,35.01,33.39,9.25,9.11,16.8,16.36,16.8,16.14,0-.3,2.22,1.7,5.03,4.29,2.74,2.59,7.25,6.88,10.07,9.55,2.81,2.59,6.81,6.37,8.96,8.44,10.36,9.99,43.6,42.19,55.45,53.74,15.32,14.95,18.43,17.91,30.13,29.17,24.13,23.1,44.49,42.79,56.04,54.04,24.13,23.61,26.87,26.28,27.24,26.28.15,0,5.55,5.11,11.99,11.33,6.37,6.29,15.1,14.66,19.39,18.73,4.29,4,12.81,12.21,18.88,18.14,6.14,5.92,12.73,12.21,14.66,14.06,2,1.78,7.25,6.81,11.77,11.18,4.52,4.44,8.44,7.99,8.81,7.99.3,0,1.18.74,1.92,1.63.74.96,3.04,3.18,5.03,4.96,2.07,1.78,10.73,10.14,19.32,18.51,8.59,8.36,19.39,18.73,23.98,23.02,4.59,4.29,12.66,11.92,17.91,17.03,5.33,5.11,12.36,11.77,15.62,14.81,9.62,8.74,41.97,41.38,41.97,42.27,0,.44-.81,1.48-1.92,2.29-1.04.81-3.11,3.18-4.74,5.33-1.55,2.07-3.7,4.74-4.81,6-1.11,1.18-3.04,3.48-4.29,5.11-1.33,1.55-3.55,4.07-4.96,5.63-1.41,1.48-4.37,4.74-6.59,7.11-2.15,2.37-8.96,9.55-15.18,15.92-6.14,6.29-13.47,14.06-16.36,17.32-9.85,11.03-11.1,12.44-14.06,15.55-1.63,1.7-4.96,5.26-7.33,7.85-5.11,5.4-30.42,32.05-34.87,36.64-1.63,1.7-5.11,5.33-7.77,8.14-4.81,5.18-22.73,24.21-30.35,32.28-2.22,2.37-5.26,5.55-6.66,7.11s-5.77,6.29-9.62,10.51-9.18,10.07-11.77,12.88c-2.66,2.89-9.99,10.73-16.29,17.4-6.37,6.74-14.21,15.03-17.47,18.51-3.26,3.41-7.62,8.07-9.77,10.29s-3.92,4.29-4.07,4.59c-.3.89-15.62,17.03-21.25,22.43-6.14,5.92-7.48,7.18-14.95,13.84-3.41,3.04-7.03,6.37-8.07,7.4-3.26,3.33-13.55,12.14-17.69,15.18-2.22,1.55-5.03,3.85-6.29,4.96-2.29,2.07-21.99,15.55-25.61,17.47-1.04.52-2.52,1.55-3.33,2.29-.81.67-2.89,1.92-4.66,2.66s-3.41,1.7-3.7,2.15c-.59.89-3.33,2.44-14.21,7.99-3.85,1.92-7.4,3.55-7.92,3.55-.44,0-3.55,1.18-6.81,2.59-3.18,1.41-6.44,2.59-7.11,2.59s-2.15.44-3.18,1.04c-2.29,1.18-6.37,2.59-14.21,4.89-3.04.89-7.55,2.22-9.99,3.04-9.11,2.74-17.99,4.81-32.87,7.4-34.72,6.14-61.44,7.48-87.42,4.29-21.02-2.52-25.09-3.11-36.35-5.03-9.18-1.55-31.39-6.88-33.83-8.07-.67-.37-4.59-1.41-8.66-2.37s-7.7-1.92-8.14-2.29c-.37-.3-2.89-1.11-5.55-1.78-2.66-.74-6.66-2.15-8.88-3.11-4-1.85-7.85-3.48-10.73-4.66-8.51-3.48-28.87-13.69-31.16-15.55-.81-.67-2.89-1.92-4.74-2.89s-3.85-2.22-4.52-2.74c-.59-.59-1.55-1.04-2.07-1.04-.44,0-3.48-1.85-6.74-4.07-3.18-2.29-7.77-5.18-10.14-6.44-2.37-1.18-4.96-2.81-5.77-3.48-.81-.74-2.29-1.7-3.33-2.15-2.37-1.11-4.37-2.44-6.22-4.07-.81-.67-1.85-1.26-2.37-1.26s-1.41-.59-1.92-1.33c-.52-.67-2.96-2.74-5.4-4.59s-4.59-3.48-4.81-3.7-1.41-1.18-2.74-2.07c-8.07-5.63-38.86-35.83-47.01-46.04-2.44-3.04-5.18-6.37-6.07-7.4s-2.89-3.85-4.44-6.22c-1.55-2.44-3.33-4.89-3.92-5.48s-1.92-2.52-2.96-4.15c-1.04-1.7-2.15-3.18-2.37-3.41-.74-.52-6-8.74-8.36-13.03-3.92-7.03-5.92-10.29-6.96-11.47-.59-.59-1.04-1.48-1.04-1.92s-.44-1.18-1.04-1.63c-.59-.52-1.26-1.78-1.55-2.89-.22-1.11-1.26-3.7-2.29-5.85-.96-2.07-1.78-4.22-1.78-4.66,0-.52-.44-1.78-.96-2.81-3.33-6.66-9.25-27.09-10.81-37.53-1.63-10.44-3.11-28.43-3.33-38.49-.22-14.88.81-50.19,1.7-56.26,1.41-9.77,3.11-19.99,4.15-24.8.59-2.66,1.78-8.51,2.59-12.95,1.48-8.36,5.63-24.28,11.03-42.94,1.92-6.59,8.51-25.54,9.55-27.46.44-.74,2.37-4.89,4.22-9.18,3.41-7.62,5.85-12.58,13.1-26.65,5.63-10.81,5.77-11.1,9.99-17.32,2.15-3.18,3.92-5.92,3.92-6.14,0-.15,1.78-2.81,3.92-5.92,2.07-3.04,4.22-6.22,4.66-7.03.44-.74,1.55-2.15,2.44-3.11.81-.89,1.55-2.07,1.55-2.52s.81-1.41,1.85-2.07,1.85-1.63,1.85-2.15c0-.44.74-1.48,1.55-2.29.89-.74,3.04-3.33,4.74-5.7,1.7-2.29,5.4-6.81,8.22-9.85,2.81-3.11,5.4-6.14,5.7-6.66.3-.59,1.11-1.04,1.63-1.04.59,0,1.04-.3.89-.59-.15-.74,15.99-17.77,38.72-40.86,7.77-7.92,20.88-21.39,29.09-29.98,20.88-21.69,35.75-37.01,50.93-52.56,7.11-7.33,15.92-16.51,19.54-20.36,14.81-15.99,21.62-23.24,24.72-26.13,5.18-4.81,5.77-5.48,16.36-17.1,5.48-6.07,12.14-13.25,14.73-15.92,8.36-8.66,26.21-27.76,30.79-32.94,2.44-2.74,7.62-8.36,11.55-12.51,3.85-4.15,10.51-11.25,14.81-15.84,4.22-4.52,7.77-8.29,7.92-8.29.15-.07.96.3,1.85.74h0Z"/>
    </g>
  </g>
  <g id="Layer_4">
    <path class="cls-3" d="M339.99,1353.76c7.29,14.99,17.94,35.03,32.68,57.45,16.13,24.54,41.12,62.55,82.07,96.3,62.61,51.59,128.96,65.54,154.07,70.52,30.05,5.96,82.81,15.8,146.78-1.32,17.92-4.8,66.52-19.69,112.18-57.34,8.39-6.92,24.75-22.78,57.48-54.52,13.51-13.1,30.14-29.25,49.19-48.59,29.1-29.56,49.79-52.35,65.78-69.93,35.8-39.36,75.43-82.79,122.52-134.36,25.98,24.69,51.95,49.38,77.93,74.07-12.16,14.38-29.87,35.13-51.56,59.85-13.84,15.78-67.29,76.51-149.93,161.78-54.65,56.4-75.18,75.14-102.52,95.41-21.63,16.04-41.81,30.83-71.53,44.79-60.91,28.6-115.02,31.65-140.62,32.84-26.74,1.25-83.15,3.31-149.93-21.33-87.44-32.27-138.54-90.38-157.48-114.22-61.67-77.61-73.95-158.62-77.12-191.38Z"/>
  </g>
  <g id="Layer_6">
    <path class="cls-1" d="M542.68,1150.1c-11.1-5.33-25.47,5.42-32.09,12.82-6.1,6.81-16.15,22.54-9.33,31.58,4.49,5.95,15.26,7.67,21.87,3.87,6.64-3.82,3.96-10.3,11.75-18.85,7.94-8.73,15.67-7.43,17.19-13.63,1.39-5.66-3.52-12.96-9.39-15.78Z"/>
    <path class="cls-1" d="M482.47,1250.56c4.06-1.36,9.03-.61,12.72,1.84,14.59,9.71-2.08,38.67,2.04,83.94,3.26,35.8,17.37,58.08,8.03,64.8-5.23,3.77-13.85-.22-15.48-1.02-17.27-8.46-19.35-35.57-21.26-65.35-1.69-26.28-4.99-77.85,13.95-84.21Z"/>
    <path class="cls-1" d="M517.11,1454.47c-4.22,8.98,8.49,22.04,11.26,24.89,7.99,8.21,26.31,21.88,38.52,14.81,4.35-2.52,8.79-8.17,7.7-13.04-1.88-8.45-18.16-4.41-32.52-17.96-7.64-7.21-9.78-14.72-16.07-14.63-3.7.05-7.37,2.7-8.89,5.93Z"/>
  </g>
</svg>