<?xml version="1.0" encoding="UTF-8"?>
<svg id="Layer_2" xmlns="http://www.w3.org/2000/svg" viewBox="0 0 1988.36 2078.19">
  <defs>
    <style>
      .cls-1 {
        fill: #fff;
      }
    </style>
  </defs>
  <g id="Layer_1-2" data-name="Layer_1">
    <path class="cls-1" d="M1346.23.57c-4.9.5-17.3,1.6-27.5,2.5s-20.1,2-22,2.5-7.3,1.4-12,2c-8.4,1.2-25.4,4.9-52.5,11.5-13.4,3.3-40.5,12-51,16.4-2.7,1.1-9.3,3.7-14.5,5.7s-12,4.9-15.1,6.4-7.3,3.3-9.5,4c-10.5,3.4-55.7,28.6-74.7,41.7-4.2,2.9-7.9,5.3-8.2,5.3-2.5,0-44.8,33-63.4,49.4-28.9,25.6-101.2,96.6-144.2,141.6-11.8,12.3-25.1,26.3-29.5,31-4.5,4.7-10.1,10.7-12.5,13.4s-6.8,7.4-9.7,10.5c-3,3.1-8.6,9-12.5,13.1s-11.4,12-16.7,17.5c-5.2,5.5-14.4,15.4-20.5,22-6,6.6-14.2,15.4-18,19.5-3.9,4.1-9.6,10.2-12.6,13.5-3.1,3.3-11.6,12.5-19,20.5-12.2,13.3-21.4,23.3-36.9,40.4-3,3.3-8.4,9.2-12,13.1-9,9.7-25.6,27.9-31,34-2.5,2.7-4.7,5.2-5,5.5s-4.1,4.5-8.5,9.5c-4.3,4.9-11.1,12.4-15.1,16.5-3.9,4.1-8.6,9.3-10.5,11.5-5.9,7-30,33.7-38.8,43-10.9,11.4-15.9,16.9-25.1,27.5-4.1,4.7-8.1,9.2-9,10s-9.9,10.5-20,21.5c-10.2,11-19.1,20.7-20,21.5-.8.8-3.7,4-6.4,7s-9.7,10.7-15.5,16.9c-5.8,6.3-13.5,14.7-17.1,18.5-3.6,3.9-13.3,14.7-21.5,24.1-8.2,9.3-20.1,22.4-26.5,29-29,30.2-41.6,43.6-53.9,57.5-10.5,11.9-18.9,20.8-35.5,38-16.8,17.4-23.1,24.2-34.1,36.5-4.9,5.5-10.3,11.4-11.9,13-1.7,1.7-6.9,7.3-11.6,12.5-12.9,14.3-26,28.7-36.1,39.5-3.7,3.8-10.4,11.4-14.9,16.7-4.5,5.4-8.6,9.8-9,9.8s-5.2,5-10.6,11.1-10.4,11.7-10.9,12.3c-18.3,19.8-40.5,49-53.4,70.1-4.1,6.6-8.4,13.6-9.6,15.5-5.7,9-27.5,50.5-27.5,52.4,0,.2-2.5,5.7-5.5,12.1-3,6.5-5.5,12-5.5,12.4,0,.7-5.9,15.1-8.5,20.6-.7,1.6-4.8,13.3-9,26-7.3,22-12.2,40-17.9,66-1.5,6.6-3.5,15.8-4.6,20.5s-2.7,14.8-3.5,22.5c-.9,7.7-2.2,18.5-3,24-1.4,9.7-2.4,20.5-4.6,52.5-1.8,25.1.3,60.7,6.1,103.5,6.8,50.6,19.4,98.6,37,141.5,2.8,6.9,6,14.8,7.1,17.7,3.2,8.4,28.1,57.7,36.4,72.3,4.2,7.3,10.6,17.9,14.2,23.4,3.7,5.6,8.2,12.6,10.2,15.6,1.9,3,4,6,4.6,6.7.5.6,2.6,3.5,4.5,6.3,1.9,2.9,6.2,8.6,9.4,12.8,7.5,9.7,16.9,21.5,17.6,22.2.3.3,4.1,4.8,8.5,10,19.3,23.1,65.3,66.7,92.8,88,5.5,4.3,8.2,6.2,21.5,15.6,6.6,4.7,27.8,18.1,36.7,23.2,3.3,1.9,7.6,4.4,9.5,5.5,5.2,3,37.6,19.1,44.5,22.2,22.2,9.8,71,26.5,93.5,32,16.8,4.1,43,9.6,48,10.1,3,.3,11.6,1.4,19,2.5s21.8,2.4,32,2.9,21.2,1.2,24.5,1.5c14.9,1.2,32.3,1.5,47.5.6,34.3-2.1,61-4.2,63.2-5,1.3-.5,6.6-1.4,11.8-2.1,28.4-3.6,60.7-11.4,90-21.5,6.9-2.4,14.8-5,17.5-5.9,7.3-2.3,16.7-5.5,19-6.6,1.1-.5,6.5-2.7,12-4.8,5.5-2.2,14.3-6,19.5-8.5,5.2-2.4,11.5-5.4,14-6.5,2.5-1.2,6.3-3.2,8.5-4.5s6.7-3.9,10-5.7c14-7.6,15.5-8.5,15.5-9.3,0-.4.6-.7,1.3-.7s4.4-2.1,8.2-4.6c3.9-2.5,10.4-6.6,14.5-9.1,10.9-6.6,33.8-23.5,41-30.3.9-.8,4.3-3.8,7.5-6.5,21.6-18.2,81-75.8,111-107.5,4.4-4.7,15.2-16.1,24-25.5,8.8-9.3,20.3-21.4,25.6-27,14.4-15,26.9-28.2,33.6-35.5,3.3-3.6,11.7-12.8,18.8-20.5s20.6-22.1,30-32,20.3-21.4,24.1-25.5c7.5-8.1,18.8-20.2,29.9-32,6.9-7.5,20.9-22.9,24.7-27.2,1.1-1.3,4.5-5,7.6-8.3s8.1-8.7,11.1-12,8-8.7,11-12c3.1-3.3,8.1-8.7,11.1-12s9.8-10.8,15.1-16.5c5.3-5.8,12.7-14.1,16.5-18.5s7.8-8.9,8.9-10.1c2.1-2.2,13.1-14.3,30.5-33.4,5.8-6.3,13.9-15.1,18-19.5,4.2-4.4,10.9-11.8,15-16.5s10.5-11.6,14.1-15.5c3.7-3.8,11.8-12.9,18-20,6.2-7.2,11.6-13.2,11.9-13.5s3.9-4.3,8-9c10.9-12.3,20.2-22.4,42.5-46,11.6-12.4,23.6-25.4,39-42.4,5-5.5,9.9-10.9,11-12.1,1.1-1.1,5.9-6.3,10.6-11.5,28.8-31.8,44.1-48.5,50.8-55.5,4.2-4.4,9.6-10.3,12-13,2.4-2.8,7.8-8.6,12-13.1,4.2-4.4,9.4-10,11.5-12.5,2.2-2.4,6.7-7.3,10-10.9,3.4-3.6,11.1-11.9,17.1-18.5,23.3-25.4,37.2-40.3,48.5-52.1,5.1-5.4,13.3-14,18-18.9,4.7-5,15.3-16.6,23.5-26,8.3-9.3,17.5-19.7,20.5-23,3.1-3.3,8.9-9.8,13-14.5,4.1-4.6,8.4-9.4,9.5-10.6,13.6-14.3,43.3-53.4,54.4-71.4,14.4-23.4,36.5-67.8,46.6-93.5,1.5-3.9,3.3-8.4,4-10,2-4.5,11.1-32,13.6-41.1,5.5-20.4,14.3-61.9,15.4-73.4.4-3.6,1.6-12.4,2.6-19.5,4.8-31.6,6.1-132.2,2.4-174.9-1.3-14.4-8.7-54.8-14.1-77.1-4.7-19.2-11.7-43.1-16.4-56-1-2.8-3.3-9.1-5-14-7.1-20.3-30.9-70.2-43.6-91.3-7.9-13.1-21.5-34.3-23.4-36.5-.6-.6-4.1-5.5-7.8-10.8s-9.4-12.9-12.7-17c-3.2-4.1-7.5-9.4-9.4-11.9-6.6-8.4-25.8-29.5-41.2-45.1-12.8-12.9-20.1-19.9-37.3-35.4-1.1-1.1-23.1-18.5-30.1-24-12.4-9.6-39.5-27.2-69-44.7-7.9-4.7-34.1-17.7-43-21.3-3.8-1.6-7.4-3.2-8-3.6-1.7-1.2-22.8-9.7-35.7-14.3-15.7-5.7-32.1-10.5-52.8-15.5-33.7-8.1-41.1-9.2-83.5-12.2-18.6-1.4-94.8-2-107-.9ZM1428.73,91.07c18.2,1.8,41.9,5.1,50.5,6.9,3.9.8,10.4,2.1,14.5,2.9s10.4,2.2,14,3.1c3.6,1,8.5,2.1,11,2.6,9.7,1.9,32.4,8.7,38.7,11.6,1.7.8,3.6,1.4,4.2,1.4s3,.9,5.3,1.9c32.6,14.7,42.9,19.6,56.3,27,2.8,1.6,10,5.4,16,8.6,12.6,6.6,39.6,24.1,50.7,32.9,1.4,1.2,3.5,2.8,4.6,3.6,27,20.7,70,63.2,83.6,82.8,2.1,3.1,6.1,8.2,8.7,11.5,2.7,3.2,7.4,9.7,10.5,14.5s7.3,11.1,9.2,14.1c9.5,14.3,19.7,31.7,24.5,41.6,7.3,14.9,12.7,26.4,12.7,27,0,.5,4.4,10.5,9,20,4.1,8.8,10.1,24.1,12.2,31.5,1.1,3.6,3.2,11.4,4.9,17.4,1.6,6,3.3,11.4,3.6,12,.4.5,1,2.8,1.4,5.1.7,3.2,3.7,16.4,7.3,31.5.8,3.3,2.6,17.1,3.7,28.5.6,6.6,1.5,12.4,1.9,13,1.6,2.2,3.5,38.8,3.5,68.5-.1,30.7-1.2,51.7-4,75-.7,6.3-1.9,16.4-2.5,22.5-.7,6-1.8,13.5-2.6,16.5-2.5,10.2-5.5,23.5-6.8,30-.7,3.6-2.2,9.3-3.4,12.8-1.2,3.4-2.2,6.9-2.2,7.8,0,.8-.5,2.5-1.2,3.7-.6,1.2-1.3,2.9-1.4,3.7-.3,1.9-4.2,13.8-5.4,16.5-.5,1.1-1.6,4.5-2.5,7.5s-2,6.2-2.4,7-2.5,5.5-4.6,10.5c-2.1,4.9-6.2,14.1-9.1,20.4-3,6.2-5.4,11.5-5.4,11.8,0,.2-1.9,3.6-4.1,7.6-2.3,4-5.4,9.4-6.8,12.2-5.7,10.5-14.3,24.5-19.3,31.2-2.1,2.9-3.8,5.6-3.8,6,0,.5-.8,1.6-1.7,2.5-1,.8-2.9,3.1-4.3,4.9-1.4,1.9-5.3,6.6-8.7,10.6-3.5,4-6.3,7.4-6.3,7.6s-2.6,3-5.7,6.3c-3.2,3.2-7.3,7.7-9.2,9.9-4.7,5.6-26.2,28.4-41.1,43.5-16.6,16.9-51.8,53.5-61.1,63.5-4.1,4.4-12.6,13.4-18.9,20-23.7,24.7-45.9,48.3-55.5,58.9-.6.6-10,10.8-21,22.6s-24,26-28.8,31.5c-4.7,5.5-9.1,10.4-9.6,11-.6.5-3.8,4.1-7.3,7.9-3.5,3.9-9.9,10.8-14.4,15.5-4.5,4.8-12.8,13.8-18.4,20.1-5.7,6.3-13.8,15.2-17.9,19.7-4.2,4.5-9.2,10-11.1,12.1-4.8,5.3-25.9,27.9-34.5,36.8-15,15.5-17.5,18.3-17.5,19.3,0,.6-.4,1.1-.9,1.1s-4.3,3.4-8.5,7.5l-7.5,7.4-3.5-4.2c-8.2-9.9-85.4-84.2-100.6-96.8-3.6-2.9-8.9-7.7-11.8-10.5s-13.9-13.4-24.5-23.5c-22.3-21.4-21.2-20.4-77.8-76.4-57.5-57-79.3-78.2-91.4-89-11.8-10.5-86.8-83.1-110.5-107-25-25.2-50.7-49.6-69-65.7-9.1-7.9-21.7-19.6-28.1-25.9s-18.1-17.5-26-24.9-22.7-21.7-33-31.7c-10.2-10.1-26.4-25.8-36-35-18.1-17.5-56.7-55.2-89.5-87.8-18.9-18.7-33.4-34.5-33.4-36.3,0-.5,2.1-3.1,4.8-5.8,2.6-2.7,8.2-8.7,12.5-13.4,4.4-4.7,10.9-11.7,14.6-15.5,3.6-3.9,8.9-9.7,11.6-13s5.5-6.3,6.1-6.7c.7-.5,5.4-5.4,10.5-11,5.1-5.7,12.4-13.7,16.3-17.9,21.3-22.7,32.9-35.1,38.6-41.4,3.5-3.9,12.5-13.5,20-21.5,42.8-45.6,53.6-57.2,65.5-70.5,10.2-11.5,23.6-25.6,44.6-47,9.1-9.4,19.1-19.7,22-23,18.4-20.4,24.9-27.5,32.8-35.7,4.6-4.9,9.1-9.8,10-11,.8-1.2,3.5-4.2,6.1-6.7,2.5-2.5,10-10.5,16.7-17.6,33.9-36.5,66.2-67.2,91.3-86.9,4.1-3.3,8.4-6.8,9.5-7.8s4-3.2,6.5-4.9c2.5-1.6,6.6-4.4,9.1-6.2,16.4-11.3,43.4-26.6,65.4-36.9,33.2-15.6,59.8-25.4,93-34.2,19.9-5.3,27.7-6.8,52-10.1,9.9-1.4,19.4-2.8,21-3.1,14.1-3.1,66.9-4.3,89.5-1.9ZM587.03,735.67c1.2.7,3,1.9,3.9,2.8s5.8,5.2,10.8,9.6c10.9,9.5,17.2,15.5,47.3,45.1,12.5,12.3,22.7,22.1,22.7,21.8,0-.4,3,2.3,6.8,5.8,3.7,3.5,9.8,9.3,13.6,12.9,3.8,3.5,9.2,8.6,12.1,11.4,14,13.5,58.9,57,74.9,72.6,20.7,20.2,24.9,24.2,40.7,39.4,32.6,31.2,60.1,57.8,75.7,73,32.6,31.9,36.3,35.5,36.8,35.5.2,0,7.5,6.9,16.2,15.3,8.6,8.5,20.4,19.8,26.2,25.3,5.8,5.4,17.3,16.5,25.5,24.5,8.3,8,17.2,16.5,19.8,19,2.7,2.4,9.8,9.2,15.9,15.1,6.1,6,11.4,10.8,11.9,10.8.4,0,1.6,1,2.6,2.2,1,1.3,4.1,4.3,6.8,6.7,2.8,2.4,14.5,13.7,26.1,25s26.2,25.3,32.4,31.1,17.1,16.1,24.2,23c7.2,6.9,16.7,15.9,21.1,20,13,11.8,56.7,55.9,56.7,57.1,0,.6-1.1,2-2.6,3.1-1.4,1.1-4.2,4.3-6.4,7.2-2.1,2.8-5,6.4-6.5,8.1-1.5,1.6-4.1,4.7-5.8,6.9-1.8,2.1-4.8,5.5-6.7,7.6-1.9,2-5.9,6.4-8.9,9.6-2.9,3.2-12.1,12.9-20.5,21.5-8.3,8.5-18.2,19-22.1,23.4-13.3,14.9-15,16.8-19,21-2.2,2.3-6.7,7.1-9.9,10.6-6.9,7.3-41.1,43.3-47.1,49.5-2.2,2.3-6.9,7.2-10.5,11-6.5,7-30.7,32.7-41,43.6-3,3.2-7.1,7.5-9,9.6s-7.8,8.5-13,14.2-12.4,13.6-15.9,17.4c-3.6,3.9-13.5,14.5-22,23.5-8.6,9.1-19.2,20.3-23.6,25-4.4,4.6-10.3,10.9-13.2,13.9s-5.3,5.8-5.5,6.2c-.4,1.2-21.1,23-28.7,30.3-8.3,8-10.1,9.7-20.2,18.7-4.6,4.1-9.5,8.6-10.9,10-4.4,4.5-18.3,16.4-23.9,20.5-3,2.1-6.8,5.2-8.5,6.7-3.1,2.8-29.7,21-34.6,23.6-1.4.7-3.4,2.1-4.5,3.1-1.1.9-3.9,2.6-6.3,3.6s-4.6,2.3-5,2.9c-.8,1.2-4.5,3.3-19.2,10.8-5.2,2.6-10,4.8-10.7,4.8-.6,0-4.8,1.6-9.2,3.5-4.3,1.9-8.7,3.5-9.6,3.5s-2.9.6-4.3,1.4c-3.1,1.6-8.6,3.5-19.2,6.6-4.1,1.2-10.2,3-13.5,4.1-12.3,3.7-24.3,6.5-44.4,10-46.9,8.3-83,10.1-118.1,5.8-28.4-3.4-33.9-4.2-49.1-6.8-12.4-2.1-42.4-9.3-45.7-10.9-.9-.5-6.2-1.9-11.7-3.2s-10.4-2.6-11-3.1c-.5-.4-3.9-1.5-7.5-2.4-3.6-1-9-2.9-12-4.2-5.4-2.5-10.6-4.7-14.5-6.3-11.5-4.7-39-18.5-42.1-21-1.1-.9-3.9-2.6-6.4-3.9s-5.2-3-6.1-3.7c-.8-.8-2.1-1.4-2.8-1.4-.6,0-4.7-2.5-9.1-5.5-4.3-3.1-10.5-7-13.7-8.7-3.2-1.6-6.7-3.8-7.8-4.7-1.1-1-3.1-2.3-4.5-2.9-3.2-1.5-5.9-3.3-8.4-5.5-1.1-.9-2.5-1.7-3.2-1.7s-1.9-.8-2.6-1.8c-.7-.9-4-3.7-7.3-6.2s-6.2-4.7-6.5-5-1.9-1.6-3.7-2.8c-10.9-7.6-52.5-48.4-63.5-62.2-3.3-4.1-7-8.6-8.2-10s-3.9-5.2-6-8.4c-2.1-3.3-4.5-6.6-5.3-7.4s-2.6-3.4-4-5.6c-1.4-2.3-2.9-4.3-3.2-4.6-1-.7-8.1-11.8-11.3-17.6-5.3-9.5-8-13.9-9.4-15.5-.8-.8-1.4-2-1.4-2.6s-.6-1.6-1.4-2.2c-.8-.7-1.7-2.4-2.1-3.9-.3-1.5-1.7-5-3.1-7.9-1.3-2.8-2.4-5.7-2.4-6.3,0-.7-.6-2.4-1.3-3.8-4.5-9-12.5-36.6-14.6-50.7-2.2-14.1-4.2-38.4-4.5-52-.3-20.1,1.1-67.8,2.3-76,1.9-13.2,4.2-27,5.6-33.5.8-3.6,2.4-11.5,3.5-17.5,2-11.3,7.6-32.8,14.9-58,2.6-8.9,11.5-34.5,12.9-37.1.6-1,3.2-6.6,5.7-12.4,4.6-10.3,7.9-17,17.7-36,7.6-14.6,7.8-15,13.5-23.4,2.9-4.3,5.3-8,5.3-8.3,0-.2,2.4-3.8,5.3-8,2.8-4.1,5.7-8.4,6.3-9.5.6-1,2.1-2.9,3.3-4.2,1.1-1.2,2.1-2.8,2.1-3.4s1.1-1.9,2.5-2.8,2.5-2.2,2.5-2.9c0-.6,1-2,2.1-3.1,1.2-1,4.1-4.5,6.4-7.7,2.3-3.1,7.3-9.2,11.1-13.3,3.8-4.2,7.3-8.3,7.7-9,.4-.8,1.5-1.4,2.2-1.4.8,0,1.4-.4,1.2-.8-.2-1,21.6-24,52.3-55.2,10.5-10.7,28.2-28.9,39.3-40.5,28.2-29.3,48.3-50,68.8-71,9.6-9.9,21.5-22.3,26.4-27.5,20-21.6,29.2-31.4,33.4-35.3,7-6.5,7.8-7.4,22.1-23.1,7.4-8.2,16.4-17.9,19.9-21.5,11.3-11.7,35.4-37.5,41.6-44.5,3.3-3.7,10.3-11.3,15.6-16.9,5.2-5.6,14.2-15.2,20-21.4,5.7-6.1,10.5-11.2,10.7-11.2.2-.1,1.3.4,2.5,1Z"/>
  </g>
</svg>